<?xml version="1.0" encoding="UTF-8" standalone="no"?>
<!-- Created with Inkscape (http://www.inkscape.org/) -->

<svg
   xmlns:dc="http://purl.org/dc/elements/1.1/"
   xmlns:cc="http://creativecommons.org/ns#"
   xmlns:rdf="http://www.w3.org/1999/02/22-rdf-syntax-ns#"
   xmlns:svg="http://www.w3.org/2000/svg"
   xmlns="http://www.w3.org/2000/svg"
   xmlns:sodipodi="http://sodipodi.sourceforge.net/DTD/sodipodi-0.dtd"
   xmlns:inkscape="http://www.inkscape.org/namespaces/inkscape"
   width="50mm"
   height="50mm"
   viewBox="0 0 50 50"
   version="1.1"
   id="svg925"
   xml:space="preserve"
   inkscape:version="0.92.5 (2060ec1f9f, 2020-04-08)"
   sodipodi:docname="ikony-lux-1.svg"><metadata
     id="metadata217"><rdf:RDF><cc:Work
         rdf:about=""><dc:format>image/svg+xml</dc:format><dc:type
           rdf:resource="http://purl.org/dc/dcmitype/StillImage" /><dc:title></dc:title></cc:Work></rdf:RDF></metadata><sodipodi:namedview
     id="namedview927"
     pagecolor="#ffffff"
     bordercolor="#666666"
     borderopacity="1.0"
     inkscape:showpageshadow="false"
     inkscape:pageopacity="0.0"
     inkscape:pagecheckerboard="0"
     inkscape:deskcolor="#d1d1d1"
     inkscape:document-units="mm"
     showgrid="false"
     inkscape:zoom="0.84096521"
     inkscape:cx="314.06142"
     inkscape:cy="111.76301"
     inkscape:window-width="1920"
     inkscape:window-height="1032"
     inkscape:window-x="0"
     inkscape:window-y="0"
     inkscape:window-maximized="1"
     inkscape:current-layer="layer1" /><defs
     id="defs922"><marker
       id="DistanceX"
       orient="auto"
       refX="0"
       refY="0"
       style="overflow:visible"><path
         d="M 3,-3 -3,3 M 0,-5 V 5"
         style="stroke:#000000;stroke-width:0.5"
         id="path1048"
         inkscape:connector-curvature="0" /></marker><pattern
       id="Hatch"
       patternUnits="userSpaceOnUse"
       width="8"
       height="8"
       x="0"
       y="0"><path
         d="M8 4 l-4,4"
         stroke="#000000"
         stroke-width="0.25"
         linecap="square"
         id="path1051" /><path
         d="M6 2 l-4,4"
         stroke="#000000"
         stroke-width="0.25"
         linecap="square"
         id="path1053" /><path
         d="M4 0 l-4,4"
         stroke="#000000"
         stroke-width="0.25"
         linecap="square"
         id="path1055" /></pattern><symbol
       id="*MODEL_SPACE" /><symbol
       id="*PAPER_SPACE" /><symbol
       id="*PAPER_SPACE0" /></defs><g
     inkscape:groupmode="layer"
     id="layer2"
     inkscape:label="Image"
     style="display:inline"
     transform="translate(0,-247)" /><g
     inkscape:label="Vrstva 1"
     inkscape:groupmode="layer"
     id="layer1"
     transform="translate(0,-247)"><g
       id="g2697"
       style="stroke:#1a1a1a;stroke-width:0.9412933;stroke-miterlimit:4;stroke-dasharray:none;stroke-opacity:1"
       inkscape:export-xdpi="300"
       inkscape:export-ydpi="300"
       transform="matrix(1.0623681,0,0,1.0623681,-30.781134,179.25388)"><path
         d="m 61.576731,100.93318 a 4.3000001,4.3000001 0 0 0 -8.599998,0"
         style="fill:none;stroke:#1a1a1a;stroke-width:0.9412933;stroke-linecap:round;stroke-miterlimit:4;stroke-dasharray:none;stroke-opacity:1"
         id="path1063"
         inkscape:connector-curvature="0" /><path
         d="m 67.297941,79.33318 a 1.0000001,1.0000001 0 0 0 0.587613,-1.809141"
         style="fill:none;stroke:#1a1a1a;stroke-width:0.9412933;stroke-linecap:round;stroke-miterlimit:4;stroke-dasharray:none;stroke-opacity:1"
         id="path1065"
         inkscape:connector-curvature="0" /><path
         d="m 32.935083,77.524039 a 1.0000001,1.0000001 0 0 0 0.587613,1.809141"
         style="fill:none;stroke:#1a1a1a;stroke-width:0.9412933;stroke-linecap:round;stroke-miterlimit:4;stroke-dasharray:none;stroke-opacity:1"
         id="path1067"
         inkscape:connector-curvature="0" /><path
         d="m 64.776731,109.33318 a 1.0000001,1.0000001 0 0 0 1.000001,-1"
         style="fill:none;stroke:#1a1a1a;stroke-width:0.9412933;stroke-linecap:round;stroke-miterlimit:4;stroke-dasharray:none;stroke-opacity:1"
         id="path1069"
         inkscape:connector-curvature="0" /><path
         d="m 35.043904,108.33318 a 1.0000001,1.0000001 0 0 0 1.000001,1"
         style="fill:none;stroke:#1a1a1a;stroke-width:0.9412933;stroke-linecap:round;stroke-miterlimit:4;stroke-dasharray:none;stroke-opacity:1"
         id="path1071"
         inkscape:connector-curvature="0" /><path
         style="fill:none;stroke:#1a1a1a;stroke-width:0.9412933;stroke-linecap:round;stroke-miterlimit:4;stroke-dasharray:none;stroke-opacity:1"
         d="M 33.522611,79.333093 H 67.297996"
         id="path1179"
         inkscape:connector-curvature="0" /><path
         style="fill:none;stroke:#1a1a1a;stroke-width:0.9412933;stroke-linecap:round;stroke-miterlimit:4;stroke-dasharray:none;stroke-opacity:1"
         d="M 67.885636,77.524136 50.410436,64.833132"
         id="path1181"
         inkscape:connector-curvature="0" /><path
         style="fill:none;stroke:#1a1a1a;stroke-width:0.9412933;stroke-linecap:round;stroke-miterlimit:4;stroke-dasharray:none;stroke-opacity:1"
         d="M 50.410436,64.833132 32.934972,77.524136"
         id="path1183"
         inkscape:connector-curvature="0" /><path
         style="fill:none;stroke:#1a1a1a;stroke-width:0.9412933;stroke-linecap:round;stroke-miterlimit:4;stroke-dasharray:none;stroke-opacity:1"
         d="M 35.043965,79.333093 V 108.33328"
         id="path1187"
         inkscape:connector-curvature="0" /><path
         style="fill:none;stroke:#1a1a1a;stroke-width:0.9412933;stroke-linecap:round;stroke-miterlimit:4;stroke-dasharray:none;stroke-opacity:1"
         d="M 36.043826,109.33314 H 64.776782"
         id="path1189"
         inkscape:connector-curvature="0" /><path
         style="fill:none;stroke:#1a1a1a;stroke-width:0.9412933;stroke-linecap:round;stroke-miterlimit:4;stroke-dasharray:none;stroke-opacity:1"
         d="M 65.776642,108.33328 V 79.333093"
         id="path1191"
         inkscape:connector-curvature="0" /><path
         style="fill:none;stroke:#1a1a1a;stroke-width:0.9412933;stroke-linecap:round;stroke-miterlimit:4;stroke-dasharray:none;stroke-opacity:1"
         d="m 52.97663,109.33314 v -8.39999"
         id="path1193"
         inkscape:connector-curvature="0" /><path
         style="fill:none;stroke:#1a1a1a;stroke-width:0.9412933;stroke-linecap:round;stroke-miterlimit:4;stroke-dasharray:none;stroke-opacity:1"
         d="m 39.243961,83.533088 h 8.600017"
         id="path1195"
         inkscape:connector-curvature="0" /><path
         style="fill:none;stroke:#1a1a1a;stroke-width:0.9412933;stroke-linecap:round;stroke-miterlimit:4;stroke-dasharray:none;stroke-opacity:1"
         d="m 39.243961,83.533088 v 8.600017"
         id="path1197"
         inkscape:connector-curvature="0" /><path
         style="fill:none;stroke:#1a1a1a;stroke-width:0.9412933;stroke-linecap:round;stroke-miterlimit:4;stroke-dasharray:none;stroke-opacity:1"
         d="m 39.243961,92.133105 h 8.600017"
         id="path1199"
         inkscape:connector-curvature="0" /><path
         style="fill:none;stroke:#1a1a1a;stroke-width:0.9412933;stroke-linecap:round;stroke-miterlimit:4;stroke-dasharray:none;stroke-opacity:1"
         d="m 47.843978,83.533088 v 8.600017"
         id="path1201"
         inkscape:connector-curvature="0" /><path
         style="fill:none;stroke:#1a1a1a;stroke-width:0.9412933;stroke-linecap:round;stroke-miterlimit:4;stroke-dasharray:none;stroke-opacity:1"
         d="m 61.576646,100.93315 v 8.39999"
         id="path1207"
         inkscape:connector-curvature="0" /><path
         style="fill:none;stroke:#1a1a1a;stroke-width:0.9412933;stroke-linecap:round;stroke-miterlimit:4;stroke-dasharray:none;stroke-opacity:1"
         d="m 58.18945,102.1288 v 2.20927"
         id="path1209"
         inkscape:connector-curvature="0" /><path
         style="fill:none;stroke:#1a1a1a;stroke-width:0.9412933;stroke-linecap:round;stroke-miterlimit:4;stroke-dasharray:none;stroke-opacity:1"
         d="m 39.243961,87.833097 h 8.600017"
         id="path1211"
         inkscape:connector-curvature="0" /><path
         style="fill:none;stroke:#1a1a1a;stroke-width:0.9412933;stroke-linecap:round;stroke-miterlimit:4;stroke-dasharray:none;stroke-opacity:1"
         d="M 47.843978,96.533126 H 39.243961"
         id="path1213"
         inkscape:connector-curvature="0" /><path
         style="fill:none;stroke:#1a1a1a;stroke-width:0.9412933;stroke-linecap:round;stroke-miterlimit:4;stroke-dasharray:none;stroke-opacity:1"
         d="m 47.843978,96.533126 v 8.600014"
         id="path1215"
         inkscape:connector-curvature="0" /><path
         style="fill:none;stroke:#1a1a1a;stroke-width:0.9412933;stroke-linecap:round;stroke-miterlimit:4;stroke-dasharray:none;stroke-opacity:1"
         d="M 47.843978,105.13314 H 39.243961"
         id="path1217"
         inkscape:connector-curvature="0" /><path
         style="fill:none;stroke:#1a1a1a;stroke-width:0.9412933;stroke-linecap:round;stroke-miterlimit:4;stroke-dasharray:none;stroke-opacity:1"
         d="m 39.243961,96.533126 v 8.600014"
         id="path1219"
         inkscape:connector-curvature="0" /><path
         style="fill:none;stroke:#1a1a1a;stroke-width:0.9412933;stroke-linecap:round;stroke-miterlimit:4;stroke-dasharray:none;stroke-opacity:1"
         d="m 43.543969,83.533088 v 8.600017"
         id="path1225"
         inkscape:connector-curvature="0" /><path
         style="fill:none;stroke:#1a1a1a;stroke-width:0.9412933;stroke-linecap:round;stroke-miterlimit:4;stroke-dasharray:none;stroke-opacity:1"
         d="m 43.543969,96.533126 v 8.600014"
         id="path1227"
         inkscape:connector-curvature="0" /><path
         style="fill:none;stroke:#1a1a1a;stroke-width:0.9412933;stroke-linecap:round;stroke-miterlimit:4;stroke-dasharray:none;stroke-opacity:1"
         d="m 39.243961,100.83313 h 8.600017"
         id="path1229"
         inkscape:connector-curvature="0" /><path
         d="m 43.610049,87.833181 a 0.066146,0.066146 0 0 0 -0.132292,0 0.066146,0.066146 0 0 0 0.132292,0 z"
         style="fill:none;stroke:#1a1a1a;stroke-width:0.9412933;stroke-linecap:round;stroke-miterlimit:4;stroke-dasharray:none;stroke-opacity:1"
         id="path1547"
         inkscape:connector-curvature="0" /><path
         d="m 43.610049,100.83318 a 0.066146,0.066146 0 0 0 -0.132292,0 0.066146,0.066146 0 0 0 0.132292,0 z"
         style="fill:none;stroke:#1a1a1a;stroke-width:0.9412933;stroke-linecap:round;stroke-miterlimit:4;stroke-dasharray:none;stroke-opacity:1"
         id="path1549"
         inkscape:connector-curvature="0" /></g><path
       inkscape:connector-curvature="0"
       id="path1798-6-1-5"
       style="fill:none;fill-opacity:1;fill-rule:evenodd;stroke:#1a1a1a;stroke-width:1;stroke-linejoin:round;stroke-miterlimit:4;stroke-dasharray:none;stroke-opacity:1"
       inkscape:transform-center-y="1.4133807e-06"
       d="m 40.635807,269.33148 c 0,0 -0.09916,-5.18581 -1.767558,-6.85422 -1.668404,-1.66841 -6.854199,-1.76755 -6.854199,-1.76755 0,0 5.185795,-0.0992 6.854199,-1.76756 1.668404,-1.66841 1.767558,-6.8542 1.767558,-6.8542 0,0 0.09916,5.18579 1.76756,6.85418 1.6684,1.66842 6.854197,1.76758 6.854197,1.76758 0,0 -5.185797,0.0992 -6.854197,1.76755 -1.668406,1.66841 -1.76756,6.85422 -1.76756,6.85422 z"
       sodipodi:nodetypes="cacacacac" /><path
       inkscape:connector-curvature="0"
       id="path1798-6-7-5-3-5-6-3-9"
       style="fill:none;fill-opacity:1;fill-rule:evenodd;stroke:#1a1a1a;stroke-width:1;stroke-linejoin:round;stroke-miterlimit:4;stroke-dasharray:none;stroke-opacity:1"
       inkscape:transform-center-y="-1.7107959e-06"
       d="m 26.567898,259.17051 c 0,0 -0.05693,-2.97781 -1.014979,-3.93586 -0.958043,-0.95805 -3.935865,-1.01498 -3.935865,-1.01498 0,0 2.977822,-0.0569 3.935865,-1.01497 0.958042,-0.95805 1.014979,-3.93588 1.014979,-3.93588 0,0 0.05693,2.97783 1.014981,3.93586 0.958042,0.95806 3.935863,1.01499 3.935863,1.01499 0,0 -2.977821,0.057 -3.935863,1.01498 -0.958044,0.95805 -1.014981,3.93586 -1.014981,3.93586 z"
       sodipodi:nodetypes="cacacacac" /><path
       inkscape:connector-curvature="0"
       id="path1798-6-7-5-3-5-2-6-1"
       style="fill:none;fill-opacity:1;fill-rule:evenodd;stroke:#1a1a1a;stroke-width:1;stroke-linejoin:round;stroke-miterlimit:4;stroke-dasharray:none;stroke-opacity:1"
       d="m 35.623758,279.84806 c 0,0 -0.05693,-2.97781 -1.014977,-3.93588 -0.958044,-0.95803 -3.935867,-1.01496 -3.935867,-1.01496 0,0 2.977825,-0.0569 3.935867,-1.01499 0.958039,-0.95803 1.014977,-3.93586 1.014977,-3.93586 0,0 0.05693,2.97783 1.014981,3.93586 0.958042,0.95804 3.935867,1.01499 3.935867,1.01499 0,0 -2.977826,0.057 -3.935869,1.01496 -0.958042,0.95807 -1.014979,3.93588 -1.014979,3.93588 z"
       sodipodi:nodetypes="cacacacac" /></g></svg>